<?xml version="1.0" standalone="no"?><!DOCTYPE svg PUBLIC "-//W3C//DTD SVG 1.1//EN" "http://www.w3.org/Graphics/SVG/1.1/DTD/svg11.dtd"><svg class="icon" width="128px" height="128.00px" viewBox="0 0 1024 1024" version="1.1" xmlns="http://www.w3.org/2000/svg"><path d="M476.22 53.69a231.51 231.51 0 0 0-57.87 7.15 43.08 43.08 0 0 0-7.45 1.29 461.24 461.24 0 0 0-60.51 870.31 458.18 458.18 0 0 0 179.47 36.25A463.49 463.49 0 0 0 632 957.31a459.26 459.26 0 0 0 178-83.48A464.39 464.39 0 0 0 879.6 808c51.86-52 76.52-133.07 69.4-228.39-3.35-45.14-13.6-92-30.48-139.18A664.84 664.84 0 0 0 848 299.72c-48.08-73.22-108.23-135-173.95-178.63-66.4-44.1-134.8-67.41-197.8-67.41z" fill="#4A4A4A" /><path d="M863.42 764.58c-77 99.8-197.77 164.09-333.57 164.09-232.53 0-421-188.5-421-421 0-194.95 132.5-358.95 312.35-406.87 34.65-9.26 497.07 592.69 442.22 663.78z" fill="#482A19" /><path d="M836.59 796.06l-144 30s-90 48.6-196.2 48.6c-229.84 0-330.29-149.26-373-258.61 0 0 9.36 44.73 36 92C221.53 818.24 341.8 928.7 529.89 928.7a419.86 419.86 0 0 0 306.7-132.64z" fill="#B04256" /><path d="M269.11 809.1s-3.75-2.62-5.59-4c-73.61-53.12-116-127.44-140.14-189.08 0 0 9.36 44.73 36 92s63.84 94.37 112.5 133c2.63 2.09 8 6.18 8 6.18z" fill="#F4527D" /><path d="M836.59 796.06l-144 30s-90 48.6-196.2 48.6q-14.57 0-28.46-0.79c-3.11-0.17-9.24-0.61-9.24-0.61L522 928.61s5.23 0.06 7.87 0.06a419.86 419.86 0 0 0 306.72-132.61z" fill="#6D332F" /><path d="M389.922168 600.534003a406.55 253.99 56.71 1 0 424.622092-278.818505 406.55 253.99 56.71 1 0-424.622092 278.818505Z" fill="#7C442C" /><path d="M546.17 275.66c9.65-4 10.74-69.4 64.51-83.44 35.9-9.38 96.95 40.43 115.37 140.72s62.37 352.46 42.65 365.35-159.27-70-245.45-139.59C436 488.26 381.2 428.5 384 367.94c2.54-54.42 40.34-101.53 89.29-99.07s63.24 10.78 72.88 6.79z" fill="#C9200E" /><path d="M696.25 580.41c-6.12 0-13.78-2-23.89-6.17-11.36-4.65-26.16-12.24-42.79-21.81-32.89-19-70.36-44.57-97.78-66.71-32.41-26.16-54.48-47.36-69.46-66.71-18.61-24-27.15-46.44-26.12-68.53 1.11-23.86 11-46 27.15-60.6 13-11.76 28.55-17.53 45.09-16.7 17 0.86 33 3 36.57 2.09 2.25-2.25 16.8-43.2 48.71-51.53 11.41-3 24.74-0.14 37.52 8 26.18 16.66 46.44 51.86 54.21 94.17 5.58 30.4 16 89.1 23.27 140.73 3.94 28.11 6.45 50.68 7.44 67.08 1.67 27.54-0.48 38.14-8.84 43.61a19.55 19.55 0 0 1-11.08 3.08z m-147.12-223.1a25.33 25.33 0 0 0-17 6.95c-7.61 6.91-12.48 18-13 29.77-1 21.08 17.21 45.1 60.83 80.32a563 563 0 0 0 62.57 43.11c19.47 11.55 31.44 16.87 37.63 18.9 0.22-7.28-0.58-24.44-6.33-64.15-5.06-35-11.91-73.32-15.53-93.07-3.53-19.24-13.26-43.59-30-54.22-4.41-2.81-8.72-4-11.53-3.31-11.58 3-15.85 13.42-19.54 24.71-2 6-3.67 11.23-9.05 13.46-4.76 2-9.32 1.18-15.1 0.17a170.48 170.48 0 0 0-22.74-2.6q-0.61-0.04-1.21-0.04z m6-66.23z" fill="#ED6E64" /><path d="M866.32 598.51q-0.58 0-1.16-0.06a12 12 0 0 1-10.8-13.09c1.9-19.79-6.34-47.3-9.67-56.23a12 12 0 1 1 22.48-8.39c0.57 1.52 13.88 37.62 11.08 66.91a12 12 0 0 1-11.93 10.86z" fill="#FFFFFF" /><path d="M860.98 626.03m-14.85 0a14.85 14.85 0 1 0 29.7 0 14.85 14.85 0 1 0-29.7 0Z" fill="#FFFFFF" /></svg>