<?xml version="1.0" standalone="no"?><!DOCTYPE svg PUBLIC "-//W3C//DTD SVG 1.1//EN" "http://www.w3.org/Graphics/SVG/1.1/DTD/svg11.dtd"><svg class="icon" width="128px" height="128.00px" viewBox="0 0 1024 1024" version="1.1" xmlns="http://www.w3.org/2000/svg"><path d="M553.94 37.93a57.26 57.26 0 0 0-8.56 0.64c-29.07 4.42-51.84 32-81.21 98.52C446.89 176.19 427.7 228.2 407 292c-59.19 0.25-119.76 2.1-168.12 5.16-26.73 1.69-48.83 3.68-65.69 5.9-25.28 3.34-38.19 7-47.63 13.64-12.73 8.91-19.37 23.35-25.95 43.75-4.54 14.09-9.5 33-14.74 56.28C75.14 460 64.73 516.87 55.56 576.95c-9.43 61.81-16.87 122.7-20.93 171.47-7.41 88.93-1.77 114.13 0.09 122.41a67.9 67.9 0 0 0 7.55 20c7 11.9 18 19.66 30.86 21.87a152.63 152.63 0 0 0 25.72 2.13c34.89 0 75.32-11.2 120.17-33.3q22.87-11.27 47.62-26.43-1.24 8.87-2.15 16.72c-1.77 15.3-2.56 27.45-2.42 37.14 0.19 12.76 1.92 29 13.71 41.29 14.57 15.21 36.42 22.6 66.77 22.6 32.6 0 77.8-8.62 134.34-25.62 49.72-15 107.6-36.25 167.38-61.61 58.32-24.74 116.46-52.46 168.13-80.17C867 776.18 913 747.56 945.47 722.7c46.86-35.88 52.85-88.84 49-114.48-1.31-8.72-5.29-35.28-61.34-129.75-33.36-56.24-76.28-121.59-120.83-184-34.26-48-85.47-116.56-134.89-170.69-22.53-24.68-42.68-44.07-59.88-57.63-24.42-19.25-44.63-28.22-63.59-28.22z" fill="#4A4A4A" /><path d="M147.5 348c-28.69 20.1-106.29 520.42-67.9 527C274.71 908.48 711.8 397.75 686 357.58S176.2 327.93 147.5 348z" fill="#FDDFB2" /><path d="M557.9 333.66c-65.61-3.79-92.36-5.14-165.15-3.34-12.14 25.33-33.43 63.27-65 167.37-33.6 110.94-62.25 242.7-62.25 242.7l113.16-16.27c43.7-37.54 86.53-78.71 125.71-119.52z" fill="#FECE89" /><path d="M686 357.58c-2.65-4.12-10.12-7.7-21.41-10.8C572.74 400.25 379.72 593.54 335 635.9c0 0-213.05 179.37-258 237.7a5.16 5.16 0 0 0 2.6 1.4C274.71 908.48 711.8 397.75 686 357.58z" fill="#FCECD2" /><path d="M317.27 674.64C371.79 628.73 586 497.7 586 497.7S353.59 722.46 300 758.8s-164.45 101.38-167.32 90.86 130.07-129.12 184.59-175.02z" fill="#FFCE00" /><path d="M150.85 486.22c6.93-37.41 21.44-95.79 34.59-146.15-20.25 2.37-33.81 5.06-37.94 8C118.81 368.1 41.21 868.42 79.6 875c1.22 0.21 2.45 0.38 3.69 0.55-0.01-98.4 54.71-320.14 67.56-389.33z" fill="#FEB9D4" /><path d="M551.12 76.39c75.56-11.48 394 461 405.52 537.51 2.1 14-0.19 52.21-34.43 78.43C773.84 805.95 357 979.74 303.4 923.78 273 892 475.56 87.87 551.12 76.39z" fill="#FCECD2" /><path d="M300.89 916.66c0.5 3.48 1.33 5.89 2.52 7.13 53.62 56 470.44-117.84 618.81-231.46 34.24-26.22 36.54-64.4 34.43-78.43a75.22 75.22 0 0 0-3.45-12.9c-74.25 52.11-171.29 115.55-265.79 163.51-151.34 76.83-303.23 127.31-386.52 152.15z" fill="#FFD488" /><path d="M514.29 448C549 312.07 551 164.3 548.06 77.26 470.25 109 273.36 892.43 303.4 923.78c0.45 0.47 0.93 0.92 1.43 1.35C396.66 832.12 477.3 592.65 514.29 448z" fill="#FFFFFF" /><path d="M548.25 130c6.69 0-5.74 107.12-12.43 170.24-10.86 102.38-44 291.71-88 378.75s-84.17 177.9-98.51 177.9c-18.17 0 55.33-274.05 93.73-391.18C481.3 349 537.73 130 548.25 130z" fill="#FFCE00" /><path d="M698.88 316a14.35 14.35 0 0 1-13.79-10.41 192.08 192.08 0 0 0-15.88-37c-10.61-18.57-32.48-43.25-32.7-43.49A14.35 14.35 0 1 1 658 206c1 1.1 24.08 27.18 36.17 48.32a218.31 218.31 0 0 1 18.55 43.35A14.36 14.36 0 0 1 698.88 316z" fill="#FFFFFF" /><path d="M727.58 347.54m-17.22 0a17.22 17.22 0 1 0 34.44 0 17.22 17.22 0 1 0-34.44 0Z" fill="#FFFFFF" /></svg>