<?xml version="1.0" standalone="no"?><!DOCTYPE svg PUBLIC "-//W3C//DTD SVG 1.1//EN" "http://www.w3.org/Graphics/SVG/1.1/DTD/svg11.dtd"><svg class="icon" width="128px" height="128.00px" viewBox="0 0 1024 1024" version="1.1" xmlns="http://www.w3.org/2000/svg"><path d="M343.27 455.76S214.6 627.33 216.8 746.1c2.11 113.9 98.61 174.44 168.26 158.37 85.78-19.8 42.89-138.57 47.29-227.65 4.26-86.25 38.49-193.56 38.49-193.56z" fill="#FFD3AB" /><path d="M283.44 534.18L246.85 616s3.47 68.89 64.42 120.27c68.18 57.46 127.51 60.39 127.51 60.39s-7.14-75.75-5.14-137.86c1.54-48 9.21-62.8 9.21-62.8z" fill="#F9B067" /><path d="M326.85 112.92c117.85-12.66 329.23 45.8 450.95 207.46 62.34 82.79 48.7 242.52 28.2 260.05s-108.11 114-318.49 55.52c-234.57-65.17-450.9-182.14-424.6-309.73C87.28 208 209 125.59 326.85 112.92z" fill="#4F2808" /><path d="M962.13 548c-15.48-23.71-53.6-65.79-134.93-81.17A162.84 162.84 0 0 0 797 464c-25.62 0-52.68 5.79-80.43 17.21-22.81 9.38-46 22.49-68.85 39-43.29 31.16-72.38 64.53-81.37 79.36-12.15 20-20.81 47.33-23.77 74.84-3.6 33.57 1.21 66.16 13.91 94.25 3.42 7.56 11.16 17.78 28.61 23.55 10.11 3.34 22.38 5 37.5 5 62.08 0 160.1-28.55 212.7-55.21 33.4-16.93 66.65-38 93.62-59.35 13.31-10.54 24.28-20.51 32.58-29.64 10.29-11.31 16.3-21.18 18.38-30.17 5.12-22.4-1.3-49.67-17.75-74.84z m-1.22 70.43c-5.27 22.82-67.45 72.22-134.41 106.16-50 25.35-145.32 53.11-203.9 53.11-24.7 0-42.87-4.93-48.36-17.07-25-55.23-10.71-118.82 8.77-151 17.09-28.2 114.48-126.13 214-126.14a142.63 142.63 0 0 1 26.57 2.51c108.11 20.41 146.09 94.43 137.33 132.42z" fill="#474747" /><path d="M697 723.6s14.61 34.09 2.92 68.18c-9.29 27.1-31.17 69.15-13.64 96.42s117.31 37.87 153.89-53.57c23.38-58.44-23.38-169.47-23.38-169.47z" fill="#FFD3AB" /><path d="M829.75 700.23l-127.27 42.9s5.25 11 2.37 26.87-17.08 54.35-17.08 54.35 40.36-5.3 87.11-34.51 62.39-61.63 62.39-61.63z" fill="#F9B067" /><path d="M583 609.65C601.62 578.93 715.47 465.5 823.58 486s146.1 94.48 137.33 132.46c-5.27 22.82-67.45 72.22-134.41 106.16-71.1 36-233.75 76.94-252.26 36-24.98-55.24-10.71-118.83 8.76-150.97z" fill="#6D340A" /><path d="M326.85 112.92S112.24 223.79 216.79 411c78.89 141.23 314.3 235.29 314.3 235.29s-28.4-6.09-43.54-10.3C252.94 570.78 36.61 453.81 62.91 326.22 85.76 215.35 194.17 136 304.73 116.11c7.38-1.33 22.12-3.19 22.12-3.19z" fill="#9D63C8" /><path d="M277.93 487.89s5.44 5.21 8.22 7.77c100.51 92.88 244.94 150.59 244.94 150.59s-28.4-6.09-43.54-10.3c-114-31.66-223.67-75.56-303.3-127-3.09-2-9.12-6-9.12-6s8.09-9.79 47-14.65c38.72-4.8 55.8-0.41 55.8-0.41z" fill="#671AF0" /><path d="M326.85 112.92s-110 56.85-134.15 157.86c-0.53 2.24-1.48 6.79-1.48 6.79s-30.82 2.43-71.7 18.1c-38.54 14.74-58 39.22-58 39.22s0.82-5.77 1.42-8.67C85.76 215.35 194.17 136 304.73 116.11c7.38-1.33 22.12-3.19 22.12-3.19z" fill="#FFE67F" /><path d="M583 609.65c7-11.52 32.14-37 55.79-58 0.37-0.33-9.14 61.52-4.17 130.1 4.87 67.2 46 89.73 46 89.73s-86 21.31-106.41-10.84c-32.51-51.17-10.68-118.85 8.79-150.99z" fill="#AF7BBB" /><path d="M583 609.65c7-11.52 32.14-37 55.79-58 0.2-0.18-2.55 18.22-4.27 46.14-0.05 0.86-0.16 2.6-0.16 2.6S623 597 603.19 605.67s-29.05 21-29.05 21 1.26-2.75 1.9-4.08c2.29-4.78 4.65-9.11 6.96-12.94z" fill="#FFE67F" /><path d="M585.85 699.33c32.33-19.17 48.78-17.61 48.78-17.61s0.08 1 0.12 1.52c5.37 66 45.9 88.21 45.9 88.21s-86 21.31-106.41-10.84a104.46 104.46 0 0 1-14-34.68l-0.3-1.44s0.8-10.27 25.91-25.16z" fill="#8846D6" /><path d="M359.73 111.26c121.19 0 307 61.59 418.07 209.12 33.38 44.33 45 110.71 45.4 165.51l0.38 0.06c108.11 20.45 146.1 94.48 137.33 132.46-5 21.83-62.17 68-125.75 101.67 9.82 36.41 17.56 83.1 5 114.55-21.85 54.62-66.24 72.83-102.19 72.83-24.24 0-44.64-8.28-51.7-19.26-17.53-27.27 4.35-69.33 13.64-96.42a86.27 86.27 0 0 0 4.48-25.28c-29.62 6.83-58.57 11.18-81.77 11.18-24.7 0-42.86-4.94-48.35-17.07-16.5-36.47-17.83-76.59-9.89-108.88-24.1-2.82-48.35-7.88-76.79-15.78q-24.79-6.89-49.23-14.53a535.82 535.82 0 0 0-6 55.4c-4.4 89.08 38.49 207.86-47.29 227.65A102.47 102.47 0 0 1 362 907c-66.1 0-143.32-59.15-145.2-160.9-1.08-58.23 29.3-129.15 60.55-186.32C140.29 495.65 44.93 413.42 62.91 326.22 87.28 208 209 125.59 326.85 112.92a308.59 308.59 0 0 1 32.88-1.67m0-39a348.68 348.68 0 0 0-37 1.89c-66.73 7.21-132.98 33.8-186.61 74.91-28.12 21.59-51.86 46.43-70.49 73.84-20.2 29.73-34 61.85-40.88 95.47-5.94 28.84-3 58.05 8.73 86.84 10.22 25.05 27.27 49.86 50.7 73.74 33.7 34.35 80.8 67.31 140.35 98.24-31.87 65.75-47.53 122.69-46.69 169.64 0.54 29.39 6.38 57.23 17.35 82.74a197.92 197.92 0 0 0 42.72 62.85C272.33 926.46 317.56 946 362 946a141.67 141.67 0 0 0 31.81-3.55c30.16-7 68.59-27.35 80.43-84.95 6.75-32.83 3.45-70.81 0.26-107.54-2.12-24.43-4.31-49.69-3.25-71.21q0.16-3.33 0.4-6.78l5.47 1.53c15.56 4.32 30 7.83 43.69 10.64a209.26 209.26 0 0 0 17.93 92.55c5 11.11 16.08 26 40.24 34 12.11 4 26.38 6 43.61 6 7 0 16-0.35 27.14-1.43a195.66 195.66 0 0 0-7 26.48c-4.78 26.33-1.17 49.07 10.73 67.58 8.06 12.53 21.29 22.59 38.28 29.08a130.82 130.82 0 0 0 46.19 8.08 144.52 144.52 0 0 0 112-52.48 167 167 0 0 0 26.33-44.84c11.11-27.78 12.25-64.49 3.44-109.4a559 559 0 0 0 64.73-44.6c42.66-34.49 51.47-55.29 54.39-67.93 6.35-27.49-1.1-60.24-20.43-89.84-15.1-23.13-49.41-62-117.58-82.38a404.31 404.31 0 0 0-10.18-65c-9.08-36.94-23.13-68.21-41.76-93a527.47 527.47 0 0 0-102.66-102.58 602.08 602.08 0 0 0-117.72-69.49A626.18 626.18 0 0 0 469 85.16c-38.19-8.54-75-12.86-109.27-12.86z" fill="#4A4A4A" /><path d="M604.43 237.59C619 221 663.24 251 683.33 278.5c26.3 36 29.22 59.41 12.66 71.1s-36.55-16.3-60.39-47.72c-21.43-28.25-45.78-47.73-31.17-64.29zM794.06 515.47c2.95-10.8 29.44-6.42 45 1 18 8.56 28.26 21.66 21.65 29.53-7.86 9.37-13.16-3.37-34.67-11.56-18.64-7.12-34.92-8.16-31.98-18.97z" fill="#FFFFFF" /><path d="M722.29 391.48m-24.35 0a24.35 24.35 0 1 0 48.7 0 24.35 24.35 0 1 0-48.7 0Z" fill="#FFFFFF" /><path d="M881.53 556.57m-11.2 0a11.2 11.2 0 1 0 22.4 0 11.2 11.2 0 1 0-22.4 0Z" fill="#FFFFFF" /></svg>