<?xml version="1.0" standalone="no"?><!DOCTYPE svg PUBLIC "-//W3C//DTD SVG 1.1//EN" "http://www.w3.org/Graphics/SVG/1.1/DTD/svg11.dtd"><svg class="icon" width="128px" height="128.00px" viewBox="0 0 1024 1024" version="1.1" xmlns="http://www.w3.org/2000/svg"><path d="M515 84c-14.79 0-25.52 6.24-35.88 12.28-11.28 6.57-26.74 15.56-58.17 24.2a556.22 556.22 0 0 0-100.29 37.86c-36.75 18.3-69.05 40.27-96 65.3-31.58 29.36-56.16 63.13-73.11 100.5-18.91 41.68-28.49 88.24-28.49 138.39 0 4.73 0.09 9.44 0.28 14.12C97 505.78 83.2 538.5 83.2 572.18a124.73 124.73 0 0 0 2.89 26.59 431 431 0 0 0 851.82 0 124.71 124.71 0 0 0 2.89-26.59 128.49 128.49 0 0 0-13-55.87 162.46 162.46 0 0 0-21.47-33.17c0.43-6.79 0.65-13.68 0.65-20.6 0-51.42-9.2-99-27.36-141.54a314.29 314.29 0 0 0-71.34-103.1c-63.83-61.6-143-89.5-198.26-102.06-26.73-6.08-44.24-14.35-57-20.39C540 89.33 528.84 84 515 84z" fill="#4A4A4A" /><path d="M122.24 583.33C147.06 776.38 312.1 925.56 512 925.56s364.94-149.18 389.76-342.23c2.13-16.55-781.65-16.55-779.52 0z" fill="#723C24" /><path d="M121.16 572.18a390.84 181.18 0 1 0 781.68 0 390.84 181.18 0 1 0-781.68 0Z" fill="#A67C52" /><path d="M869 462.53c0-194.89-143.14-281.41-267.42-309.68C549.44 141 528 122 515 122c-11.89 0-25.36 19-84 35.12-121.48 33.39-270 116.51-270 305.4s158.5 249.73 354 249.73 354-71.11 354-249.72z" fill="#FFF4CE" /><path d="M869 462.53s-29.43 151.9-285.28 136.9c-111.91-6.56-246.2-75.65-247-248.43C336.3 264 459 149.43 431 157.13c-121.48 33.39-270 116.51-270 305.4q0 4.21 0.1 8.33c4.63 182.36 161.3 241.39 353.9 241.39 192.35 0 348.87-68.83 353.86-241.17 0.08-2.82 0.14-8.55 0.14-8.55z" fill="#FFF4A0" /><path d="M477.11 140.43a279.86 279.86 0 0 1-46.11 16.7c-121.48 33.39-270 116.51-270 305.4 0 131 76.24 200.41 188.18 230.64 7.14-24.35 0.21-56.63-3-68.31C331.58 572.61 257 514.36 257 391c0-107.9 148.41-208.34 220.11-250.57z" fill="#FFD561" /><path d="M161 462.53s0 5.58 0.1 8.33c3.18 125.63 78.53 192.72 188.07 222.31 7.14-24.35 0.21-56.63-3-68.31-6.53-23.41-25.1-48-43.61-79.16-1.46-2.45-4.36-7.47-4.36-7.47S258 534.11 218.7 512c-47.97-27-57.7-49.47-57.7-49.47z" fill="#FFC25A" /><path d="M477.11 140.43a279.86 279.86 0 0 1-46.11 16.7c-65.58 18-139 50.54-192.75 106.37-3.74 3.89-10.93 12-10.93 12s14-3.78 40.38-5.51c29.28-1.92 48.22-4 48.22-4s4.92-5.41 7.45-8.08c48.81-51.55 113.41-93.73 153.74-117.48z" fill="#FFED48" /><path d="M744.71 457.39a31.28 31.27 0 1 0 62.56 0 31.28 31.27 0 1 0-62.56 0Z" fill="#FFFFFF" /><path d="M775.2 317.51c-26.81-64.76-78.2-81.14-98.31-72.21s14.15 62.53 35 93.8 45.43 67 67.78 64.76-4.47-86.35-4.47-86.35z" fill="#FFFFFF" /></svg>