<?xml version="1.0" standalone="no"?><!DOCTYPE svg PUBLIC "-//W3C//DTD SVG 1.1//EN" "http://www.w3.org/Graphics/SVG/1.1/DTD/svg11.dtd"><svg class="icon" width="128px" height="128.00px" viewBox="0 0 1024 1024" version="1.1" xmlns="http://www.w3.org/2000/svg"><path d="M256.41 353.47s-38.85-45.15-82.95-45.15-123.9 24.15-123.9 104c0 94.5 100.8 211 181.65 248.85S331 705.22 331 705.22zM131.46 465.82C111.51 408.07 143 385 170.31 385c44.1 0 73.5 53.55 73.5 53.55s8.17 42.2 15.11 83.58 18.49 102.27 18.49 102.27-121.22-87.01-145.95-158.58z" fill="#9ACFDB" /><path d="M170.31 410c13.68 0 26.34 10 34.54 18.36a122.18 122.18 0 0 1 15.25 19.24c2.25 11.77 8.64 45.64 14.17 78.63 1.87 11.16 4.09 23.79 6.32 36.27-3.27-2.89-6.6-5.89-10-9-51.36-47.2-69.42-78.19-75.53-95.87s-6.52-32.48-1-40.23c4.93-6.92 13.66-7.46 16.22-7.46m0-25c-27.3 0-58.8 23.1-38.85 80.85 24.72 71.57 145.95 158.55 145.95 158.55s-11.55-60.9-18.49-102.27-15.11-83.58-15.11-83.58S214.41 385 170.31 385z" fill="#4A4A4A" /><path d="M598.71 920.47c-155.32 0-272.63-89-314.29-265s-53.21-310.41-53.21-310.41h735S960.59 501.78 913 655.48 754 920.47 598.71 920.47z" fill="#D4FFFC" /><path d="M363.51 727.27c-44.79-73.05-77.7-273-77.7-273s0-14.7-32.55-52.5a127.45 127.45 0 0 1-19.38-31.08c5.37 47.06 19.71 154.52 50.54 284.78C320.58 808.21 413.7 895.4 539.2 915.79c-24.82-15.25-102.76-69.58-175.69-188.52z" fill="#B1A4FA" /><path d="M327.47 768s2.3 4 3.48 6c47.68 80 120 127.46 208.25 141.81-19.34-11.89-71-47.52-127.32-119-1.68-2.13-5-6.48-5-6.48s-14.93-0.11-39.95-7.24C351.45 778.7 327.47 768 327.47 768z" fill="#8E6AFF" /><path d="M316.38 598s-1.56-6.07-2.33-9.09c-17.53-69.49-28.24-134.6-28.24-134.6s0-14.7-32.55-52.5a127.45 127.45 0 0 1-19.38-31.08c4.36 38.19 14.62 116.16 34.82 213.81 0.62 3 1.9 9.09 1.9 9.09s12.7 3.5 21.51 4.37a133.9 133.9 0 0 0 24.27 0z" fill="#D2D7F6" /><path d="M231.21 344.55a367.5 208.43 0 1 0 735 0 367.5 208.43 0 1 0-735 0Z" fill="#A5CECC" /><path d="M909.11 456.17a113.42 113.42 0 0 0 9.46-44.95c0-101.48-140.24-183.75-313.23-183.75S292.1 309.74 292.1 411.22c0 22.14 6.68 43.36 18.9 63 67.33 48 171.18 78.74 287.71 78.74 130.56 0.04 245.21-38.6 310.4-96.79z" fill="#D1813F" /><path d="M679.56 382.87c16.8 5.25 69.3-29.4-13.65-51.45S549.36 344 444.36 357.67 352 494.17 352 494.17l71.4 29.4s8.4-94.5 78.75-139.65 160.61-6.3 177.41-1.05z" fill="#E2B087" opacity=".75" /><path d="M698.46 409.12c-5.25 14.7 33.6 25.2 26.25 39.9-12.62 25.23-71.4 43.05-102.9 17.85s-35.7-58.8-58.8-43 4.59 108.75 122.85 82.95c57.75-12.6 73.5-39.9 78.75-59.85 12.53-47.64-58.88-58.21-66.15-37.85z" fill="#E2B087" opacity=".75" /><path d="M598.71 150.53c48.58 0 95.67 5.39 140 16 42.52 10.2 80.62 24.75 113.25 43.26 32 18.16 57 39.15 74.36 62.36s26 47.48 26 72.39-8.74 49.27-26 72.39-42.33 44.19-74.36 62.36c-32.62 18.5-70.73 33.06-113.25 43.26-44.29 10.62-91.38 16-140 16s-95.67-5.39-140-16c-42.52-10.2-80.62-24.75-113.25-43.26-32-18.16-57-39.15-74.36-62.36s-26-47.48-26-72.39 8.74-49.27 26-72.39 42.33-44.19 74.36-62.36c32.63-18.5 70.73-33.06 113.25-43.26 44.29-10.62 91.38-16 140-16m0-15c-203.54 0-368.55 93.58-368.55 209s165 209 368.55 209 368.55-93.58 368.55-209-165-209-368.55-209z" fill="#FFFFFF" /><path d="M598.71 136.12c203 0 367.5 93.32 367.5 208.43v0.74c0 3.62-13.09 180.65-53.2 310.19-47.59 153.69-159 265-314.29 265-144.9 0-256.7-77.46-304.88-230.75-14.85-6.56-35.16-15.76-62.62-28.6-80.86-37.81-181.66-154.36-181.66-248.86 0-79.8 79.8-104 123.9-104 22.28 0 42.17 11.53 57.44 22.93C243 222.34 403.62 136.12 598.71 136.12m0-40c-100.58 0-196.94 21.81-271.33 61.41-58.22 31-99.64 71-120.89 115.9a110.59 110.59 0 0 0-33-5.12c-34.41 0-71.71 10.54-99.78 28.19-19.12 12-34.31 27.2-45.17 45.13-12.6 20.76-18.98 44.52-18.98 70.64 0 28.07 6.83 58.12 20.29 89.29 11.71 27.11 28 54.31 48.57 80.86A457.78 457.78 0 0 0 142.8 650c23.71 20.17 48.42 36.54 71.48 47.31 17.41 8.14 33.22 15.41 47.22 21.73 12.31 34.56 28 66 46.81 93.79a334.71 334.71 0 0 0 77.91 81.86A325.48 325.48 0 0 0 485 944.23c35.28 10.78 73.53 16.24 113.68 16.24a332.27 332.27 0 0 0 224-84.89c57.63-50.94 102-123 128.46-208.27 17.35-56 31.84-126.28 43.06-208.75 7.67-56.36 11.46-102.19 11.89-111.71v-0.27-1.75-0.27a163.39 163.39 0 0 0-9.72-55.56 192.05 192.05 0 0 0-27-49.46c-21.84-29.29-52.49-55.24-91.09-77.13-75.28-42.76-174.6-66.29-279.57-66.29z" fill="#4A4A4A" /><path d="M795.05 322.32a10 10 0 0 1-6-2 161.4 161.4 0 0 0-28.94-16.41c-15.77-6.91-32.61-6.22-32.79-6.21a10 10 0 0 1-1-20c0.87 0 21.59-1 41.82 7.86a178.55 178.55 0 0 1 33 18.77 10 10 0 0 1-6 18z" fill="#FFFFFF" /><path d="M827.61 335.42m-14.7 0a14.7 14.7 0 1 0 29.4 0 14.7 14.7 0 1 0-29.4 0Z" fill="#FFFFFF" /></svg>